<svg width="16" height="16" viewBox="0 0 16 16" fill="none" xmlns="http://www.w3.org/2000/svg">
<path d="M8.04 10.7793L8 10.8229L7.956 10.7793C6.056 8.90027 4.8 7.65777 4.8 6.39782C4.8 5.52589 5.4 4.87193 6.2 4.87193C6.816 4.87193 7.416 5.3079 7.628 5.90082H8.372C8.584 5.3079 9.184 4.87193 9.8 4.87193C10.6 4.87193 11.2 5.52589 11.2 6.39782C11.2 7.65777 9.944 8.90027 8.04 10.7793ZM9.8 4C9.104 4 8.436 4.35313 8 4.90681C7.564 4.35313 6.896 4 6.2 4C4.968 4 4 5.05068 4 6.39782C4 8.04142 5.36 9.38856 7.42 11.4245L8 12L8.58 11.4245C10.64 9.38856 12 8.04142 12 6.39782C12 5.05068 11.032 4 9.8 4Z" fill="#6B4047"/>
</svg>
